# xmcd
#
# Track frame offsets: 
#        150
#        10650
#        20485
#        28396
#        35732
#        44699
#        57371
#        70875
#        96177
#        106207
#        125518
#        135379
#        143276
#        150592
#        163279
#        176776
#        202082
#
# Disc length: 2828 seconds
#
# Revision: 0
# Processed by: cddbd v1.5.2PL0 Copyright (c) Steve Scherf et al.
# Submitted via: ExactAudioCopy v0.95b2
#
DISCID=f10b0a11
DTITLE=Various Artist - Weselne piosenki
DYEAR=1900
DGENRE=Ballad
TTITLE0=Marsz powitalny
TTITLE1=Wyjezdzaj furmanie
TTITLE2=Sto lat
TTITLE3=Ona temu winna
TTITLE4=Marsz dla gosci
TTITLE5=On zimny ona gor¹ca
TTITLE6=Przyspiewki oczepinowe
TTITLE7=Chusteczka haftowana
TTITLE8=Dwanascie listeczkow
TTITLE9=Marsz po¿egnalny
TTITLE10=Wyjezdzaj furmanie - instr.
TTITLE11=Sto lat - instr.
TTITLE12=Ona temu winna - instr.
TTITLE13=On zimny ona gor¹ca - instr.
TTITLE14=Przyspiewki oczepinowe - instr.
TTITLE15=Chusteczka haftowana - instr.
TTITLE16=Dwanascie listeczkow - instr.
EXTD=
EXTT0=
EXTT1=
EXTT2=
EXTT3=
EXTT4=
EXTT5=
EXTT6=
EXTT7=
EXTT8=
EXTT9=
EXTT10=
EXTT11=
EXTT12=
EXTT13=
EXTT14=
EXTT15=
EXTT16=
PLAYORDER=
